<svg xmlns="http://www.w3.org/2000/svg" xmlns:xlink="http://www.w3.org/1999/xlink" id="Layer_1" x="0" y="0" version="1.1" viewBox="0 0 22 22" xml:space="preserve" style="enable-background:new 0 0 22 22"><style type="text/css">.st0{display:none}.st1{display:inline;fill:none;stroke:#9e9e9e;stroke-width:2.000000e-02;stroke-miterlimit:10}.st2,.st3{fill:#fff}.st3{stroke:#000;stroke-width:12;stroke-miterlimit:10}</style><g id="grid" class="st0"><line x1="11" x2="11" y1="0" y2="22" class="st1"/><path d="M21.5,11" class="st1"/><path d="M0.4,11" class="st1"/><line x1="0" x2="22" y1="22" y2="0" class="st1"/><line x1="11" x2="22" y1="0" y2="11" class="st1"/><line x1="0" x2="11" y1="11" y2="22" class="st1"/><line x1="22" x2="11" y1="11" y2="22" class="st1"/><line x1="11" x2="0" y1="0" y2="11" class="st1"/><line x1="14.3" x2="14.3" y1="0" y2="22" class="st1"/><line x1="7.7" x2="7.7" y1="0" y2="22" class="st1"/><line x1="3.3" x2="3.3" y1="0" y2="22" class="st1"/><line x1="18.7" x2="18.7" y1="0" y2="22" class="st1"/><line x1="22" x2="0" y1="11" y2="11" class="st1"/><line x1="22" x2="0" y1="14.3" y2="14.3" class="st1"/><line x1="22" x2="0" y1="7.7" y2="7.7" class="st1"/><line x1="22" x2="0" y1="3.3" y2="3.3" class="st1"/><line x1="22" x2="0" y1="18.7" y2="18.7" class="st1"/><line x1="2.2" x2="2.2" y1="0" y2="22" class="st1"/><line x1="19.8" x2="19.8" y1="0" y2="22" class="st1"/><line x1="0" x2="22" y1="19.8" y2="19.8" class="st1"/><line x1="0" x2="22" y1="2.2" y2="2.2" class="st1"/><line x1="17.6" x2="17.6" y1="0" y2="22" class="st1"/><line x1="11" x2="20.3" y1="1.6" y2="11" class="st1"/><line x1="1.6" x2="11" y1="11" y2="20.3" class="st1"/><line x1="20.3" x2="11" y1="11" y2="20.3" class="st1"/><line x1="11" x2="1.6" y1="1.6" y2="11" class="st1"/><line x1="0" x2="22" y1="0" y2="22" class="st1"/><line x1="6.6" x2="6.6" y1="0" y2="22" class="st1"/><line x1="15.4" x2="15.4" y1="0" y2="22" class="st1"/><line x1="0" x2="22" y1="15.4" y2="15.4" class="st1"/><line x1="0" x2="22" y1="6.6" y2="6.6" class="st1"/><line x1="20.9" x2="0" y1="22" y2="1.1" class="st1"/><line x1="1.1" x2="22" y1="0" y2="20.9" class="st1"/><path d="M22,22" class="st1"/><path d="M0,0" class="st1"/><line x1="0" x2="20.9" y1="20.9" y2="0" class="st1"/><line x1="22" x2="1.1" y1="1.1" y2="22" class="st1"/><line x1="4.4" x2="4.4" y1="0" y2="22" class="st1"/><line x1="22" x2="0" y1="17.6" y2="17.6" class="st1"/><line x1="22" x2="0" y1="4.4" y2="4.4" class="st1"/><rect width="6.2" height="6.2" x="7.9" y="7.9" class="st1" transform="matrix(0.7071 -0.7071 0.7071 0.7071 -4.5563 11.0003)"/><line x1="0" x2="22" y1="16.5" y2="16.5" class="st1"/><line x1="16.5" x2="16.5" y1="22" y2="0" class="st1"/><line x1="5.5" x2="5.5" y1="22" y2="0" class="st1"/><line x1="22" x2="0" y1="5.5" y2="5.5" class="st1"/><line x1="12.1" x2="12.1" y1="0" y2="22" class="st1"/><line x1="13.2" x2="13.2" y1="0" y2="22" class="st1"/><line x1="8.8" x2="8.8" y1="22" y2="0" class="st1"/><line x1="9.9" x2="9.9" y1="22" y2="0" class="st1"/><line x1="0" x2="22" y1="7.7" y2="7.7" class="st1"/><line x1="0" x2="22" y1="14.3" y2="14.3" class="st1"/><line x1="0" x2="22" y1="9.9" y2="9.9" class="st1"/><line x1="0" x2="22" y1="8.8" y2="8.8" class="st1"/><line x1="22" x2="0" y1="13.2" y2="13.2" class="st1"/><line x1="22" x2="0" y1="12.1" y2="12.1" class="st1"/><line x1="1.1" x2="1.1" y1="0" y2="22" class="st1"/><line x1="20.9" x2="20.9" y1="0" y2="22" class="st1"/><line x1="0" x2="22" y1="1.1" y2="1.1" class="st1"/><line x1="0" x2="22" y1="20.9" y2="20.9" class="st1"/></g><polygon points="16.4 8.4 5.6 8.4 5.6 4 6.9 4 6.9 7 15.1 7 15.1 4 16.4 4" class="st2"/><path d="M17.2,20.9H4.8c-1.4,0-2.6-1.2-2.6-2.6V5.9c0-1.4,1.2-2.6,2.6-2.6h3.4C8.4,2,9.6,0.9,11,0.9s2.6,1,2.8,2.4h3.4	c1.4,0,2.6,1.2,2.6,2.6v12.5C19.8,19.8,18.6,20.9,17.2,20.9z M4.8,4.7c-0.7,0-1.2,0.5-1.2,1.2v12.5c0,0.7,0.5,1.2,1.2,1.2h12.5	c0.7,0,1.2-0.5,1.2-1.2V5.9c0-0.7-0.5-1.2-1.2-1.2h-4.8V3.8c0-0.8-0.7-1.5-1.5-1.5S9.5,3,9.5,3.8v0.9H4.8z" class="st2"/><path d="M2.9,8.4" class="st3"/><rect width="9.5" height="1.4" x="6.3" y="10.9" class="st2"/><rect width="9.5" height="1.4" x="6.3" y="14.9" class="st2"/></svg>