<svg id="Layer_1" data-name="Layer 1" xmlns="http://www.w3.org/2000/svg" viewBox="0 0 191.33 49.33"><defs><style>.cls-1{fill:#545454;}.cls-2,.cls-3,.cls-4{fill:none;stroke-miterlimit:10;stroke-width:4.5px;}.cls-2{stroke:#f5a252;}.cls-3{stroke:#579aca;}.cls-4{stroke:#e66581;}</style></defs><title>binder_logo</title><path class="cls-1" d="M44.85,43.26V7H52.1V24.55a8.93,8.93,0,0,1,7.3-3.09c6,0,10.59,5.27,10.59,11.17S65.44,43.74,59.4,43.74c-2.76,0-5.85-.87-7.3-3v2.56Zm12.33-5.32a5.32,5.32,0,1,0-5.08-5.32A5.22,5.22,0,0,0,57.18,37.94Z"/><path class="cls-1" d="M78.45,10.38a4.25,4.25,0,1,1-4.25,4.25A4.26,4.26,0,0,1,78.45,10.38ZM74.82,43.26V21.94h7.25V43.26Z"/><path class="cls-1" d="M109.92,43.26h-7.25V31.17c0-2.51-1-3.87-3.24-3.87s-4.06,2.42-4.06,5.32V43.26H88.12V21.94h7.25v2.61a8.17,8.17,0,0,1,6.53-3.09c5.7,0,8,3.92,8,9.72Z"/><path class="cls-1" d="M138.92,43.26h-7.25V40.69c-1.45,2.18-4.59,3-7.3,3-6,0-10.59-5.22-10.59-11.12s4.54-11.17,10.59-11.17a9,9,0,0,1,7.3,3.09V7h7.25Zm-12.33-16a5.32,5.32,0,1,0,5.08,5.32A5.22,5.22,0,0,0,126.6,27.3Z"/><path class="cls-1" d="M167.74,33.49H151.2c0,2.47,1.74,5.08,4.59,5.08,2.56,0,4.16-1.69,4.21-3.24h7.4c-1.26,5.61-5.8,8.41-11.46,8.41-7.35,0-12.42-4.35-12.42-11.12s5.27-11.17,12.42-11.17c6.48,0,11.84,3.87,11.84,10.68C167.78,32.57,167.74,33.06,167.74,33.49Zm-6.91-3.43a4.46,4.46,0,0,0-4.74-4c-4.54,0-4.79,4-4.79,4Z"/><path class="cls-1" d="M179.63,32.62V43.26h-7.25V21.94h7.25v2.61a6.75,6.75,0,0,1,5.61-3.09,5.69,5.69,0,0,1,2.18.48v6.57h-.1a3.63,3.63,0,0,0-2.9-1.21C181.71,27.3,179.63,30.06,179.63,32.62Z"/><circle class="cls-2" cx="22.98" cy="15.92" r="9.72" transform="translate(-4.88 13.59) rotate(-29.94)"/><circle class="cls-3" cx="22.98" cy="34.82" r="9.72" transform="translate(-14.31 16.12) rotate(-29.94)"/><circle class="cls-4" cx="13.48" cy="25.44" r="9.72" transform="translate(-10.9 10.12) rotate(-29.94)"/><path class="cls-3" d="M15.16,29.05A9.72,9.72,0,0,1,31.4,30"/><path class="cls-2" d="M14.56,20.77a9.72,9.72,0,1,1,16.84-9.7"/></svg>